<svg xmlns="http://www.w3.org/2000/svg" width="48" height="48" viewBox="0 0 48 48" fill="none">
  <rect width="48" height="48" rx="10" fill="#6C5CE7"/>
  <path d="M24 12C17.373 12 12 17.373 12 24C12 30.627 17.373 36 24 36C30.627 36 36 30.627 36 24C36 17.373 30.627 12 24 12ZM24 33.6C18.698 33.6 14.4 29.302 14.4 24C14.4 18.698 18.698 14.4 24 14.4C29.302 14.4 33.6 18.698 33.6 24C33.6 29.302 29.302 33.6 24 33.6Z" fill="white"/>
  <path d="M30 19.2L24 24L18 19.2L16.8 20.4L22.8 25.2L16.8 30L18 31.2L24 26.4L30 31.2L31.2 30L25.2 25.2L31.2 20.4L30 19.2Z" fill="white"/>
  <path d="M28.8 16.8L30 18L31.2 16.8L30 15.6L28.8 16.8Z" fill="white"/>
</svg>